<svg version="1.1" id="Layer_1" xmlns="http://www.w3.org/2000/svg" xmlns:xlink="http://www.w3.org/1999/xlink" x="0px" y="0px"
	 width="308.7612359841165" height="300.915625" viewBox="0 0 850 800" xml:space="preserve">
<path fill="#000000" opacity="0.000000" stroke="none" 
	d="
M352.000000,1.000004 
	C568.286072,1.000000 784.572205,1.000000 1000.929138,1.000000 
	C1000.929138,208.574081 1000.929138,416.148193 1000.929138,624.000000 
	C784.973206,624.000000 568.946289,624.000000 352.281281,623.602478 
	C352.652496,622.804077 353.629944,622.197754 354.676270,622.035400 
	C361.942139,620.907837 369.327820,620.338440 376.477875,618.719238 
	C397.289429,614.006226 417.714783,608.099243 437.327087,599.408081 
	C462.871765,588.088013 486.853790,574.295715 508.659760,556.796570 
	C510.932373,554.972839 513.005310,552.900208 516.208069,550.005676 
	C505.764343,550.005676 496.961334,549.944885 488.161377,550.080017 
	C487.016754,550.097595 485.834869,551.038269 484.759399,551.696960 
	C473.205750,558.772522 461.959442,566.411194 450.066742,572.858643 
	C427.903992,584.873840 404.349854,593.622131 379.686157,598.800415 
	C364.514374,601.985840 349.091980,604.671448 333.656281,605.708435 
	C318.647552,606.716675 303.423889,606.013550 288.395477,604.806213 
	C274.421509,603.683655 260.338013,601.917542 246.728882,598.656494 
	C212.871338,590.543335 181.176346,577.063782 152.088943,557.666077 
	C133.278915,545.122009 115.937569,530.837646 100.780800,514.104736 
	C91.324371,503.664948 82.317276,492.740906 73.935890,481.421570 
	C59.304630,461.661591 48.226570,439.918732 39.363518,416.955841 
	C27.843433,387.108978 21.939613,356.138153 20.138948,324.359589 
	C19.578865,314.475098 20.305920,304.469543 21.082739,294.569550 
	C22.056593,282.158600 22.795504,269.621704 25.215321,257.453247 
	C30.888771,228.923431 40.232166,201.595718 53.946281,175.775406 
	C65.127975,154.723007 78.335884,135.057007 94.292679,117.490662 
	C110.500130,99.648376 128.149460,83.235451 148.410126,69.803825 
	C167.252655,57.312340 186.968552,46.689857 208.041870,38.434391 
	C235.769989,27.571913 264.523376,21.176670 294.103577,19.231987 
	C309.115631,18.245056 324.358124,18.860813 339.364349,20.215384 
	C354.786316,21.607481 370.317505,23.690519 385.322815,27.403299 
	C416.857391,35.205944 446.475647,47.902275 473.596008,66.057961 
	C478.180878,69.127281 482.609314,73.791733 487.606781,74.583427 
	C496.448639,75.984131 505.672058,74.976013 515.701172,74.976013 
	C514.355408,73.254822 513.827332,72.233772 513.005127,71.586235 
	C508.891785,68.346764 504.719452,65.181114 500.534973,62.033218 
	C475.282013,43.035988 447.611969,28.551929 417.889038,17.945072 
	C397.091583,10.523346 375.765900,5.313730 353.779694,2.909069 
	C353.124695,2.837433 352.590515,1.661222 352.000000,1.000004 
M332.795715,506.000336 
	C339.128662,505.999908 345.462769,505.930573 351.794037,506.033234 
	C354.301331,506.073883 355.348114,505.291046 356.254791,502.683105 
	C366.195923,474.088959 376.376648,445.578094 386.494812,417.045471 
	C394.977875,393.123627 403.532867,369.226990 411.932983,345.276062 
	C424.694397,308.890167 437.343597,272.464905 450.052521,236.060562 
	C454.374207,223.681168 458.732239,211.314484 463.073639,198.942001 
	C463.402252,198.998215 463.730865,199.054428 464.059479,199.110641 
	C464.059479,301.260864 464.059479,403.411072 464.059479,505.651611 
	C472.959198,505.651611 481.341431,505.651611 489.600037,505.651611 
	C489.600037,376.929291 489.600037,248.556030 489.600037,120.000076 
	C484.874847,120.000076 480.548096,120.000084 476.221375,120.000084 
	C464.031708,120.000084 464.134644,120.036667 459.946320,131.820618 
	C449.041290,162.502243 437.955505,193.119736 427.094147,223.816711 
	C414.825531,258.491058 402.808258,293.254364 390.525543,327.923676 
	C376.885864,366.423187 363.063873,404.858093 349.336060,443.326385 
	C346.829010,450.351807 344.392609,457.402466 341.639404,465.251617 
	C332.218750,438.784943 323.050446,413.242004 314.035889,387.644958 
	C303.709137,358.321838 293.563538,328.934937 283.258301,299.604156 
	C269.718140,261.066284 256.097992,222.556534 242.514160,184.033997 
	C235.367889,163.767792 228.253937,143.490036 221.013947,123.257378 
	C220.563690,121.999123 219.167526,120.192566 218.162460,120.160133 
	C210.232956,119.904274 202.291550,120.017982 194.348450,120.017982 
	C194.348450,248.989487 194.348450,377.363922 194.348450,505.761536 
	C202.965897,505.761536 211.232849,505.761536 219.989899,505.761536 
	C219.989899,403.054382 219.989899,300.584412 219.989899,198.114441 
	C229.880920,223.899338 238.955292,249.797058 248.018845,275.698578 
	C258.666077,306.125885 269.359222,336.537262 279.930481,366.990967 
	C290.711670,398.049347 301.371552,429.149841 312.079498,460.233643 
	C316.743256,473.771973 321.337616,487.334686 326.100494,500.837982 
	C327.019531,503.443512 327.612976,506.914703 332.795715,506.000336 
M808.000000,369.500000 
	C807.666626,324.063232 807.434326,278.625397 806.953125,233.190201 
	C806.741577,213.219925 801.435730,194.486603 791.987793,176.900558 
	C782.011719,158.331451 767.765015,143.977020 749.188049,134.106567 
	C728.488831,123.108528 705.861084,119.556801 682.866638,119.152992 
	C649.043762,118.559021 615.202759,118.999641 581.369446,118.999542 
	C579.629578,118.999542 577.889648,118.999550 576.304382,118.999550 
	C576.304382,248.428680 576.304382,377.027252 576.304382,505.647858 
	C577.065552,505.795502 577.538513,505.970459 578.010132,505.966888 
	C619.274353,505.654297 660.538513,505.326721 701.802673,505.003204 
	C718.332886,504.873596 734.338440,501.999207 749.767395,495.980347 
	C769.956177,488.104736 785.212463,474.862122 795.259827,455.471558 
	C804.635376,437.377686 806.841370,417.807434 807.914856,397.995392 
	C808.410095,388.855560 807.999756,379.666656 808.000000,369.500000 
z"/>
<path fill="#EE3E38" opacity="1.000000" stroke="none" 
	d="
M351.531342,1.000004 
	C352.590515,1.661222 353.124695,2.837433 353.779694,2.909069 
	C375.765900,5.313730 397.091583,10.523346 417.889038,17.945072 
	C447.611969,28.551929 475.282013,43.035988 500.534973,62.033218 
	C504.719452,65.181114 508.891785,68.346764 513.005127,71.586235 
	C513.827332,72.233772 514.355408,73.254822 515.701172,74.976013 
	C505.672058,74.976013 496.448639,75.984131 487.606781,74.583427 
	C482.609314,73.791733 478.180878,69.127281 473.596008,66.057961 
	C446.475647,47.902275 416.857391,35.205944 385.322815,27.403299 
	C370.317505,23.690519 354.786316,21.607481 339.364349,20.215384 
	C324.358124,18.860813 309.115631,18.245056 294.103577,19.231987 
	C264.523376,21.176670 235.769989,27.571913 208.041870,38.434391 
	C186.968552,46.689857 167.252655,57.312340 148.410126,69.803825 
	C128.149460,83.235451 110.500130,99.648376 94.292679,117.490662 
	C78.335884,135.057007 65.127975,154.723007 53.946281,175.775406 
	C40.232166,201.595718 30.888771,228.923431 25.215321,257.453247 
	C22.795504,269.621704 22.056593,282.158600 21.082739,294.569550 
	C20.305920,304.469543 19.578865,314.475098 20.138948,324.359589 
	C21.939613,356.138153 27.843433,387.108978 39.363518,416.955841 
	C48.226570,439.918732 59.304630,461.661591 73.935890,481.421570 
	C82.317276,492.740906 91.324371,503.664948 100.780800,514.104736 
	C115.937569,530.837646 133.278915,545.122009 152.088943,557.666077 
	C181.176346,577.063782 212.871338,590.543335 246.728882,598.656494 
	C260.338013,601.917542 274.421509,603.683655 288.395477,604.806213 
	C303.423889,606.013550 318.647552,606.716675 333.656281,605.708435 
	C349.091980,604.671448 364.514374,601.985840 379.686157,598.800415 
	C404.349854,593.622131 427.903992,584.873840 450.066742,572.858643 
	C461.959442,566.411194 473.205750,558.772522 484.759399,551.696960 
	C485.834869,551.038269 487.016754,550.097595 488.161377,550.080017 
	C496.961334,549.944885 505.764343,550.005676 516.208069,550.005676 
	C513.005310,552.900208 510.932373,554.972839 508.659760,556.796570 
	C486.853790,574.295715 462.871765,588.088013 437.327087,599.408081 
	C417.714783,608.099243 397.289429,614.006226 376.477875,618.719238 
	C369.327820,620.338440 361.942139,620.907837 354.676270,622.035400 
	C353.629944,622.197754 352.652496,622.804077 351.821594,623.602478 
	C326.979095,624.000000 301.958221,624.000000 276.647034,623.602417 
	C275.513672,622.806396 274.703491,622.170837 273.821991,622.048340 
	C268.307678,621.281799 262.705048,620.986145 257.264374,619.881226 
	C225.482193,613.426331 194.963135,603.420959 166.359192,587.817627 
	C135.119247,570.776428 107.359734,549.508606 83.381210,523.082703 
	C67.425072,505.497955 53.640316,486.543915 41.943127,465.936859 
	C28.010708,441.391937 17.630680,415.484619 10.914660,388.076050 
	C6.859848,371.528015 3.715893,354.857452 2.917606,337.792908 
	C2.872753,336.834137 1.665971,335.929718 0.999997,335.000000 
	C1.000000,320.312439 1.000000,305.624878 1.412368,290.631165 
	C2.207498,289.645538 2.854802,288.994720 2.931948,288.282135 
	C3.673683,281.431152 3.789103,274.466522 5.100136,267.732269 
	C8.052608,252.566605 10.975812,237.348755 15.015599,222.451706 
	C21.796726,197.445786 32.778191,174.163086 45.986012,151.890823 
	C57.491886,132.488525 70.822296,114.382904 86.512177,98.289917 
	C98.218063,86.283287 110.955238,75.153687 124.060219,64.667099 
	C148.985718,44.721779 176.894562,29.843044 206.903351,18.981052 
	C228.732330,11.079829 251.096085,5.327268 274.251648,2.906454 
	C274.893860,2.839315 275.419830,1.660457 276.000000,0.999999 
	C301.020905,1.000000 326.041779,1.000000 351.531342,1.000004 
z"/>
<path fill="#000000" opacity="0.000000" stroke="none" 
	d="
M0.999997,335.468658 
	C1.665971,335.929718 2.872753,336.834137 2.917606,337.792908 
	C3.715893,354.857452 6.859848,371.528015 10.914660,388.076050 
	C17.630680,415.484619 28.010708,441.391937 41.943127,465.936859 
	C53.640316,486.543915 67.425072,505.497955 83.381210,523.082703 
	C107.359734,549.508606 135.119247,570.776428 166.359192,587.817627 
	C194.963135,603.420959 225.482193,613.426331 257.264374,619.881226 
	C262.705048,620.986145 268.307678,621.281799 273.821991,622.048340 
	C274.703491,622.170837 275.513672,622.806396 276.178406,623.602417 
	C184.404449,624.000000 92.808891,624.000000 1.000000,624.000000 
	C1.000000,527.979187 1.000000,431.958252 0.999997,335.468658 
z"/>
<path fill="#000000" opacity="0.000000" stroke="none" 
	d="
M275.531342,0.999999 
	C275.419830,1.660457 274.893860,2.839315 274.251648,2.906454 
	C251.096085,5.327268 228.732330,11.079829 206.903351,18.981052 
	C176.894562,29.843044 148.985718,44.721779 124.060219,64.667099 
	C110.955238,75.153687 98.218063,86.283287 86.512177,98.289917 
	C70.822296,114.382904 57.491886,132.488525 45.986012,151.890823 
	C32.778191,174.163086 21.796726,197.445786 15.015599,222.451706 
	C10.975812,237.348755 8.052608,252.566605 5.100136,267.732269 
	C3.789103,274.466522 3.673683,281.431152 2.931948,288.282135 
	C2.854802,288.994720 2.207498,289.645538 1.412368,290.162506 
	C1.000000,193.741425 1.000000,97.482841 1.000000,1.000000 
	C92.354103,1.000000 183.708389,1.000000 275.531342,0.999999 
z"/>
<path fill="#EE3E38" opacity="1.000000" stroke="none" 
	d="
M332.336365,506.000244 
	C327.612976,506.914703 327.019531,503.443512 326.100494,500.837982 
	C321.337616,487.334686 316.743256,473.771973 312.079498,460.233643 
	C301.371552,429.149841 290.711670,398.049347 279.930481,366.990967 
	C269.359222,336.537262 258.666077,306.125885 248.018845,275.698578 
	C238.955292,249.797058 229.880920,223.899338 219.989899,198.114441 
	C219.989899,300.584412 219.989899,403.054382 219.989899,505.761536 
	C211.232849,505.761536 202.965897,505.761536 194.348450,505.761536 
	C194.348450,377.363922 194.348450,248.989487 194.348450,120.017982 
	C202.291550,120.017982 210.232956,119.904274 218.162460,120.160133 
	C219.167526,120.192566 220.563690,121.999123 221.013947,123.257378 
	C228.253937,143.490036 235.367889,163.767792 242.514160,184.033997 
	C256.097992,222.556534 269.718140,261.066284 283.258301,299.604156 
	C293.563538,328.934937 303.709137,358.321838 314.035889,387.644958 
	C323.050446,413.242004 332.218750,438.784943 341.639404,465.251617 
	C344.392609,457.402466 346.829010,450.351807 349.336060,443.326385 
	C363.063873,404.858093 376.885864,366.423187 390.525543,327.923676 
	C402.808258,293.254364 414.825531,258.491058 427.094147,223.816711 
	C437.955505,193.119736 449.041290,162.502243 459.946320,131.820618 
	C464.134644,120.036667 464.031708,120.000084 476.221375,120.000084 
	C480.548096,120.000084 484.874847,120.000076 489.600037,120.000076 
	C489.600037,248.556030 489.600037,376.929291 489.600037,505.651611 
	C481.341431,505.651611 472.959198,505.651611 464.059479,505.651611 
	C464.059479,403.411072 464.059479,301.260864 464.059479,199.110641 
	C463.730865,199.054428 463.402252,198.998215 463.073639,198.942001 
	C458.732239,211.314484 454.374207,223.681168 450.052521,236.060562 
	C437.343597,272.464905 424.694397,308.890167 411.932983,345.276062 
	C403.532867,369.226990 394.977875,393.123627 386.494812,417.045471 
	C376.376648,445.578094 366.195923,474.088959 356.254791,502.683105 
	C355.348114,505.291046 354.301331,506.073883 351.794037,506.033234 
	C345.462769,505.930573 339.128662,505.999908 332.336365,506.000244 
z"/>
<path fill="#EE3E38" opacity="1.000000" stroke="none" 
	d="
M808.000000,370.000000 
	C807.999756,379.666656 808.410095,388.855560 807.914856,397.995392 
	C806.841370,417.807434 804.635376,437.377686 795.259827,455.471558 
	C785.212463,474.862122 769.956177,488.104736 749.767395,495.980347 
	C734.338440,501.999207 718.332886,504.873596 701.802673,505.003204 
	C660.538513,505.326721 619.274353,505.654297 578.010132,505.966888 
	C577.538513,505.970459 577.065552,505.795502 576.304382,505.647858 
	C576.304382,377.027252 576.304382,248.428680 576.304382,118.999550 
	C577.889648,118.999550 579.629578,118.999542 581.369446,118.999542 
	C615.202759,118.999641 649.043762,118.559021 682.866638,119.152992 
	C705.861084,119.556801 728.488831,123.108528 749.188049,134.106567 
	C767.765015,143.977020 782.011719,158.331451 791.987793,176.900558 
	C801.435730,194.486603 806.741577,213.219925 806.953125,233.190201 
	C807.434326,278.625397 807.666626,324.063232 808.000000,370.000000 
M745.603455,161.918396 
	C743.148682,160.299438 740.781921,158.523972 738.225037,157.086594 
	C719.742371,146.696350 699.620605,143.085083 678.704224,143.017227 
	C655.041748,142.940460 631.378845,142.999527 607.716125,142.999527 
	C605.940125,142.999527 604.164124,142.999512 602.321045,142.999512 
	C602.321045,256.276886 602.321045,368.980133 602.321045,481.015015 
	C635.062378,481.015015 667.469543,481.335236 699.866272,480.892090 
	C718.600159,480.635864 736.136597,474.984863 752.457886,465.815735 
	C762.232666,460.324310 769.455750,452.217804 773.854736,442.016785 
	C780.107361,427.516998 782.052063,412.125183 782.026184,396.399170 
	C781.952454,351.573456 782.158936,306.746613 781.908630,261.922180 
	C781.828369,247.552994 781.146118,233.146133 779.841431,218.838379 
	C778.876709,208.257263 774.968445,198.349777 769.643494,189.054947 
	C763.610962,178.524979 756.002075,169.411667 745.603455,161.918396 
z"/>
<path fill="#000000" opacity="0.000000" stroke="none" 
	d="
M745.960266,161.991791 
	C756.002075,169.411667 763.610962,178.524979 769.643494,189.054947 
	C774.968445,198.349777 778.876709,208.257263 779.841431,218.838379 
	C781.146118,233.146133 781.828369,247.552994 781.908630,261.922180 
	C782.158936,306.746613 781.952454,351.573456 782.026184,396.399170 
	C782.052063,412.125183 780.107361,427.516998 773.854736,442.016785 
	C769.455750,452.217804 762.232666,460.324310 752.457886,465.815735 
	C736.136597,474.984863 718.600159,480.635864 699.866272,480.892090 
	C667.469543,481.335236 635.062378,481.015015 602.321045,481.015015 
	C602.321045,368.980133 602.321045,256.276886 602.321045,142.999512 
	C604.164124,142.999512 605.940125,142.999527 607.716125,142.999527 
	C631.378845,142.999527 655.041748,142.940460 678.704224,143.017227 
	C699.620605,143.085083 719.742371,146.696350 738.225037,157.086594 
	C740.781921,158.523972 743.148682,160.299438 745.960266,161.991791 
z"/>
</svg>